# xmcd
#
# Track frame offsets:
#        150
#        18414
#        38196
#        48594
#        66152
#        84197
#        99765
#        116575
#        134307
#        152641
#        165387
#        182645
#        200469
#        217749
#        235068
#        253744
#        267310
#
# Disc length: 3776 seconds
#
# Revision: 0
# Processed by: cddbd v1.5.2PL0 Copyright (c) Steve Scherf et al.
# Submitted via: CDGFix 3.8d
#
DISCID=d90ebe11
DTITLE=Various Artist - CBEP5097-01
DYEAR=1900
DGENRE=Karaoke
TTITLE0=Tractors - Santa Claus Is Coming To Town ( In A Boogie Woogie Choo Choo Train)
TTITLE1=Montgomery Gentry - Merry Christmas From The Family
TTITLE2=George Strait - Merry Christmas Strait To You
TTITLE3=Trisha Yearwood - It Wasn't His Child
TTITLE4=Brooks And Dunn - Who Says There Ain't No Santa
TTITLE5=Tracy Byrd - Christmas Like Mama Used To Make It
TTITLE6=Alan Jackson - Just Put A Ribbon In Your Hair
TTITLE7=Doug Stone - Christmas Card, A
TTITLE8=Reba Mcentire - Secret Of Giving
TTITLE9=Toby Keith - Christmas Rock
TTITLE10=John Michael Montgomery - My Christmas Wish
TTITLE11=Aaron Tipton - To Close To Christmas To Be This Far From U
TTITLE12=Lisa Brokop - Shake Me I Rattle
TTITLE13=Steve Warnier - This Christmas Prayer
TTITLE14=Sammy Kershaw - Daddy Stuff
TTITLE15=Rhonda Vincent - Christmas Time At Home
TTITLE16=Ray Steven - Santa Claus Is Watching You
EXTD=
EXTT0=
EXTT1=
EXTT2=
EXTT3=
EXTT4=
EXTT5=
EXTT6=
EXTT7=
EXTT8=
EXTT9=
EXTT10=
EXTT11=
EXTT12=
EXTT13=
EXTT14=
EXTT15=
EXTT16=
PLAYORDER=
